<?xml version="1.0" standalone="no"?>
<!DOCTYPE svg PUBLIC "-//W3C//DTD SVG 20010904//EN"
 "http://www.w3.org/TR/2001/REC-SVG-20010904/DTD/svg10.dtd">
<svg version="1.0" xmlns="http://www.w3.org/2000/svg"
 width="256.000000pt" height="256.000000pt" viewBox="0 0 256.000000 256.000000"
 preserveAspectRatio="xMidYMid meet">

<g transform="translate(0.000000,256.000000) scale(0.100000,-0.100000)"
fill="#000000" stroke="none">
<path d="M1210 2553 c-52 -6 -130 -33 -171 -59 -50 -31 -87 -78 -123 -154 -26
-57 -30 -77 -34 -177 -3 -84 -8 -113 -18 -113 -31 0 -46 -32 -40 -84 12 -88
26 -125 60 -158 29 -29 34 -41 40 -103 8 -77 29 -133 78 -203 32 -45 33 -50
32 -142 -1 -156 -19 -174 -254 -265 -236 -92 -331 -151 -385 -244 l-30 -51
-90 0 c-50 0 -108 -5 -130 -11 -52 -15 -119 -82 -134 -134 -15 -53 -15 -457 0
-510 15 -52 82 -119 134 -134 56 -15 2214 -15 2270 0 52 15 119 82 134 134 15
53 15 457 0 510 -15 52 -82 119 -134 134 -22 6 -81 11 -131 11 l-92 0 -13 31
c-18 45 -95 118 -170 162 -35 20 -134 65 -219 98 -247 96 -263 112 -264 269
-1 92 0 97 32 142 49 71 71 128 78 207 5 56 11 75 26 84 31 19 56 68 68 134
13 75 6 111 -25 119 -21 5 -23 12 -28 112 -6 124 -15 157 -59 232 -39 63 -96
110 -170 138 -54 20 -175 33 -238 25z m1210 -1848 c56 -29 60 -51 60 -305 0
-187 -3 -237 -15 -260 -33 -63 35 -60 -1185 -60 -1220 0 -1152 -3 -1185 60
-22 43 -22 477 0 520 32 63 -37 59 1183 60 976 0 1117 -2 1142 -15z"/>
<path d="M358 531 c-26 -59 -28 -61 -65 -62 -21 -1 -49 -4 -62 -8 -24 -6 -23
-8 23 -46 36 -29 46 -43 42 -59 -3 -12 -8 -40 -12 -64 l-7 -44 50 31 c28 17
54 31 58 31 4 0 30 -13 57 -30 26 -16 50 -30 52 -30 2 0 -3 28 -11 62 l-14 62
47 40 c41 35 44 41 28 47 -11 4 -38 8 -62 8 -43 1 -43 1 -70 62 l-28 62 -26
-62z"/>
<path d="M805 532 c-27 -61 -28 -62 -69 -63 -78 -1 -83 -9 -32 -57 41 -38 44
-44 36 -74 -4 -18 -11 -46 -14 -61 l-7 -29 59 32 58 32 49 -30 c27 -17 51 -29
53 -27 2 2 -2 30 -8 61 l-12 58 47 42 c46 39 47 41 24 47 -13 4 -41 7 -62 7
-37 0 -39 2 -66 62 l-28 62 -28 -62z"/>
<path d="M1698 530 c-26 -58 -27 -60 -65 -60 -21 0 -49 -3 -62 -7 -23 -6 -22
-8 24 -47 l47 -42 -12 -58 c-6 -31 -10 -59 -8 -61 2 -2 26 10 53 27 l49 31 47
-27 c26 -14 51 -26 57 -26 6 0 4 22 -3 55 l-13 55 44 42 c51 48 46 56 -32 57
-41 1 -42 2 -68 61 -15 33 -28 60 -29 60 -1 0 -14 -27 -29 -60z"/>
<path d="M2147 532 c-26 -60 -28 -62 -64 -62 -21 0 -49 -3 -62 -7 -24 -6 -23
-7 23 -47 l47 -41 -15 -63 c-8 -34 -12 -62 -9 -62 3 0 28 14 55 30 26 17 51
30 55 30 3 0 28 -13 55 -30 26 -16 50 -30 52 -30 2 0 -3 28 -11 62 l-14 62 47
42 48 41 -33 6 c-19 4 -47 7 -63 7 -26 0 -32 6 -56 62 l-28 61 -27 -61z"/>
<path d="M1249 528 c-13 -29 -31 -54 -39 -55 -8 -1 -36 -5 -63 -8 l-47 -6 46
-43 47 -42 -10 -55 c-6 -30 -9 -56 -7 -59 3 -2 28 8 55 24 l50 28 56 -32 c55
-31 55 -31 50 -8 -24 93 -22 102 28 146 l46 41 -48 6 c-26 3 -55 7 -63 8 -8 1
-26 26 -39 55 -14 28 -28 52 -31 52 -3 0 -17 -24 -31 -52z"/>
</g>
</svg>
