<?xml version="1.0" standalone="no"?>
<!DOCTYPE svg PUBLIC "-//W3C//DTD SVG 20010904//EN"
 "http://www.w3.org/TR/2001/REC-SVG-20010904/DTD/svg10.dtd">
<svg version="1.0" xmlns="http://www.w3.org/2000/svg"
 width="256.000000pt" height="256.000000pt" viewBox="0 0 256.000000 256.000000"
 preserveAspectRatio="xMidYMid meet">

<g transform="translate(0.000000,256.000000) scale(0.100000,-0.100000)"
fill="#000000" stroke="none">
<path d="M152 2135 l-132 -265 290 0 c160 0 290 2 290 4 0 2 25 119 55 260 30
141 55 258 55 261 0 3 -96 5 -213 5 l-212 0 -133 -265z"/>
<path d="M776 2383 c-10 -34 -106 -486 -106 -499 0 -12 51 -14 290 -14 l290 0
0 265 0 265 -234 0 c-215 0 -235 -1 -240 -17z"/>
<path d="M1310 2135 l0 -265 290 0 c225 0 290 3 290 13 0 13 -97 470 -106 500
-5 16 -25 17 -240 17 l-234 0 0 -265z"/>
<path d="M1850 2395 c0 -3 25 -120 55 -261 30 -141 55 -258 55 -260 0 -2 130
-4 290 -4 l290 0 -132 265 -133 265 -212 0 c-117 0 -213 -2 -213 -5z"/>
<path d="M2 1693 c4 -103 8 -125 31 -169 55 -107 152 -168 267 -168 116 0 211
62 262 169 26 55 28 70 28 173 l0 112 -296 0 -296 0 4 -117z"/>
<path d="M662 1688 c3 -136 12 -164 74 -236 103 -121 308 -126 423 -11 62 61
85 128 89 257 l4 112 -297 0 -297 0 4 -122z"/>
<path d="M1312 1698 c5 -132 24 -188 90 -255 56 -58 126 -86 209 -85 117 0
205 56 259 164 28 57 30 68 30 175 l0 113 -296 0 -296 0 4 -112z"/>
<path d="M1970 1702 c0 -130 15 -182 71 -246 141 -160 397 -122 490 72 18 38
23 70 27 165 l4 117 -296 0 -296 0 0 -108z"/>
<path d="M1915 1464 c-26 -48 -106 -121 -162 -146 -39 -18 -67 -22 -148 -23
-96 0 -102 1 -165 36 -58 32 -133 106 -154 150 -5 11 -7 12 -12 1 -17 -37 -75
-101 -118 -130 -99 -66 -243 -80 -348 -34 -55 24 -128 88 -160 140 l-22 35
-15 -24 c-36 -55 -104 -117 -158 -144 -50 -25 -70 -29 -143 -30 -47 0 -100 4
-118 8 l-32 9 0 -600 c0 -533 2 -602 16 -616 13 -13 42 -16 160 -16 l144 0 0
468 c0 351 3 471 12 480 17 17 519 17 536 0 9 -9 12 -129 12 -480 l0 -468 664
0 c591 0 666 2 680 16 14 14 16 83 16 616 l0 600 -32 -9 c-18 -4 -71 -8 -118
-8 -73 0 -93 4 -140 28 -64 33 -112 76 -150 134 l-26 41 -19 -34z m199 -440
c3 -9 6 -129 6 -268 0 -183 -3 -255 -12 -264 -17 -17 -679 -17 -696 0 -9 9
-12 81 -12 264 0 139 3 259 6 268 5 14 46 16 354 16 308 0 349 -2 354 -16z"/>
</g>
</svg>
