<?xml version="1.0" standalone="no"?>
<!DOCTYPE svg PUBLIC "-//W3C//DTD SVG 20010904//EN"
 "http://www.w3.org/TR/2001/REC-SVG-20010904/DTD/svg10.dtd">
<svg version="1.0" xmlns="http://www.w3.org/2000/svg"
 width="256.000000pt" height="256.000000pt" viewBox="0 0 256.000000 256.000000"
 preserveAspectRatio="xMidYMid meet">

<g transform="translate(0.000000,256.000000) scale(0.100000,-0.100000)"
fill="#000000" stroke="none">
<path d="M220 1620 l0 -940 720 0 720 0 0 940 0 940 -720 0 -720 0 0 -940z
m424 764 c3 -9 6 -27 6 -40 0 -18 8 -27 28 -35 42 -16 81 -59 93 -102 15 -58
8 -69 -48 -65 -42 3 -47 6 -54 31 -12 45 -28 57 -74 57 -49 0 -66 -15 -67 -61
-1 -40 21 -59 103 -91 34 -13 80 -39 102 -59 37 -33 41 -40 45 -95 3 -49 0
-65 -20 -94 -12 -19 -42 -44 -65 -55 -32 -14 -43 -25 -43 -41 0 -43 -10 -54
-50 -54 -37 0 -39 1 -42 37 -3 33 -7 38 -46 51 -54 18 -99 63 -108 107 -10 53
-1 65 46 65 39 0 43 -2 57 -40 13 -32 23 -42 53 -51 70 -21 127 19 111 79 -7
28 -14 32 -143 92 -87 40 -112 78 -106 155 6 69 29 103 89 128 46 20 49 23 49
59 0 37 1 38 39 38 26 0 41 -5 45 -16z m810 -166 c8 -13 8 -23 0 -35 -10 -16
-35 -18 -249 -21 -244 -2 -265 0 -265 37 0 39 16 41 264 39 215 -3 240 -5 250
-20z m0 -240 c8 -13 8 -23 0 -35 -10 -16 -35 -18 -249 -21 -244 -2 -265 0
-265 37 0 39 16 41 264 39 215 -3 240 -5 250 -20z m0 -240 c8 -13 8 -23 0 -35
-10 -16 -35 -18 -249 -21 -244 -2 -265 0 -265 37 0 39 16 41 264 39 215 -3
240 -5 250 -20z m0 -240 c8 -13 8 -23 0 -35 -10 -17 -47 -18 -509 -21 -513 -2
-525 -1 -525 37 0 41 4 41 524 39 463 -3 500 -4 510 -20z m0 -240 c8 -13 8
-23 0 -35 -10 -17 -47 -18 -509 -21 -513 -2 -525 -1 -525 37 0 41 4 41 524 39
463 -3 500 -4 510 -20z m-420 -240 c8 -13 8 -23 0 -35 -10 -16 -37 -18 -299
-21 -296 -2 -315 0 -315 37 0 40 14 41 314 39 262 -3 290 -5 300 -20z"/>
<path d="M1740 1410 l0 -810 -590 0 -590 0 0 -130 0 -130 720 0 720 0 0 940 0
940 -130 0 -130 0 0 -810z"/>
<path d="M2080 1070 l0 -810 -590 0 -590 0 0 -130 0 -130 720 0 720 0 0 940 0
940 -130 0 -130 0 0 -810z"/>
</g>
</svg>
