<?xml version="1.0" standalone="no"?>
<!DOCTYPE svg PUBLIC "-//W3C//DTD SVG 20010904//EN"
 "http://www.w3.org/TR/2001/REC-SVG-20010904/DTD/svg10.dtd">
<svg version="1.0" xmlns="http://www.w3.org/2000/svg"
 width="500.000000pt" height="500.000000pt" viewBox="0 0 500.000000 500.000000"
 preserveAspectRatio="xMidYMid meet">

<g transform="translate(0.000000,500.000000) scale(0.100000,-0.100000)"
fill="#000000" stroke="none">
<path d="M736 4569 c-113 -27 -224 -121 -279 -237 l-32 -67 -3 -1529 c-3
-1667 -5 -1591 53 -1690 50 -86 150 -164 250 -196 48 -15 518 -205 885 -358
311 -129 665 -272 674 -272 3 0 6 139 6 310 l0 309 473 3 472 3 66 32 c122 60
210 181 230 316 5 34 9 153 9 265 l0 202 -205 0 -205 0 0 -205 0 -205 -420 0
-420 0 0 1249 0 1248 -502 188 c-277 104 -528 199 -558 211 l-55 23 978 1 977
0 0 -210 0 -210 205 0 205 0 0 213 c0 116 -5 239 -10 272 -22 134 -109 247
-238 308 l-67 32 -1225 2 c-718 1 -1241 -3 -1264 -8z"/>
<path d="M3811 3389 l-143 -141 161 -162 c88 -89 161 -165 161 -169 0 -4 -288
-7 -640 -7 l-640 0 0 -205 0 -205 640 0 c377 0 640 -4 640 -9 0 -5 -73 -79
-162 -165 l-163 -155 140 -141 c77 -77 145 -140 150 -140 10 0 641 622 770
758 l59 63 -409 409 c-226 226 -412 410 -415 410 -3 0 -70 -64 -149 -141z"/>
</g>
</svg>
