<?xml version="1.0" standalone="no"?>
<!DOCTYPE svg PUBLIC "-//W3C//DTD SVG 20010904//EN"
 "http://www.w3.org/TR/2001/REC-SVG-20010904/DTD/svg10.dtd">
<svg version="1.0" xmlns="http://www.w3.org/2000/svg"
 width="256.000000pt" height="256.000000pt" viewBox="0 0 256.000000 256.000000"
 preserveAspectRatio="xMidYMid meet">

<g transform="translate(0.000000,256.000000) scale(0.100000,-0.100000)"
fill="#000000" stroke="none">
<path d="M360 1435 l0 -995 155 0 155 0 0 -155 0 -155 765 0 765 0 0 995 0
995 -155 0 -155 0 0 155 0 155 -765 0 -765 0 0 -995z m1380 765 l0 -80 -535 0
-535 0 0 -765 0 -765 -80 0 -80 0 0 845 0 845 615 0 615 0 0 -80z m310 -1075
l0 -845 -615 0 -615 0 0 845 0 845 615 0 615 0 0 -845z"/>
<path d="M1050 1665 l0 -75 75 0 75 0 0 75 0 75 -75 0 -75 0 0 -75z"/>
<path d="M1360 1665 l0 -75 230 0 230 0 0 75 0 75 -230 0 -230 0 0 -75z"/>
<path d="M1050 1305 l0 -75 75 0 75 0 0 75 0 75 -75 0 -75 0 0 -75z"/>
<path d="M1360 1305 l0 -75 230 0 230 0 0 75 0 75 -230 0 -230 0 0 -75z"/>
<path d="M1050 945 l0 -75 75 0 75 0 0 75 0 75 -75 0 -75 0 0 -75z"/>
<path d="M1360 945 l0 -75 230 0 230 0 0 75 0 75 -230 0 -230 0 0 -75z"/>
<path d="M1050 585 l0 -75 75 0 75 0 0 75 0 75 -75 0 -75 0 0 -75z"/>
<path d="M1360 585 l0 -75 228 2 227 3 3 73 3 72 -231 0 -230 0 0 -75z"/>
</g>
</svg>
