<?xml version="1.0" encoding="iso-8859-1"?>
<!-- Generator: Adobe Illustrator 19.0.0, SVG Export Plug-In . SVG Version: 6.00 Build 0)  -->
<svg version="1.1" id="Layer_1" xmlns="http://www.w3.org/2000/svg" xmlns:xlink="http://www.w3.org/1999/xlink" x="0px" y="0px"
	 viewBox="0 0 512 512" style="enable-background:new 0 0 512 512;" xml:space="preserve">
<rect x="216.668" y="112.179" transform="matrix(-0.4717 0.8818 -0.8818 -0.4717 552.6438 -74.7609)" width="164.102" height="32.001"/>
<polygon style="fill:#13B7E6;" points="0,189.902 512,189.902 414.408,463.718 85.264,463.718 "/>
<g>
	<path style="fill:#FFFFFF;" d="M249.2,370.654v-40.688c-12.696-3.624-22-9.112-27.928-16.464c-5.92-7.352-8.88-16.272-8.88-26.76
		c0-10.624,3.344-19.536,10.048-26.76c6.704-7.216,15.616-11.376,26.76-12.48v-9.616h14.08v9.616
		c10.288,1.232,18.48,4.744,24.568,10.536c6.08,5.792,9.968,13.552,11.656,23.256l-24.568,3.208
		c-1.488-7.64-5.376-12.824-11.656-15.544v37.976c15.536,4.208,26.12,9.664,31.752,16.368c5.632,6.696,8.456,15.296,8.456,25.784
		c0,11.72-3.544,21.6-10.64,29.624c-7.088,8.024-16.944,12.944-29.568,14.76v18.16H249.2v-17.68
		c-11.208-1.36-20.296-5.536-27.288-12.528c-6.992-6.984-11.464-16.864-13.408-29.616l25.352-2.72
		c1.032,5.184,2.976,9.648,5.824,13.408C242.536,366.254,245.704,368.974,249.2,370.654z M249.2,268.686
		c-3.824,1.296-6.864,3.496-9.128,6.608c-2.272,3.104-3.4,6.536-3.4,10.288c0,3.432,1.032,6.616,3.104,9.568
		s5.216,5.328,9.424,7.136V268.686z M263.288,372.022c4.848-0.904,8.8-3.16,11.848-6.752c3.04-3.592,4.568-7.816,4.568-12.672
		c0-4.336-1.28-8.072-3.84-11.216c-2.552-3.136-6.744-5.552-12.576-7.232V372.022z"/>
	<path style="fill:#FFFFFF;" d="M364.584,355.19v-26.976c-8.416-2.408-14.584-6.04-18.512-10.912
		c-3.928-4.872-5.888-10.784-5.888-17.744c0-7.04,2.216-12.952,6.664-17.744c4.44-4.784,10.352-7.544,17.744-8.272v-6.376h9.336
		v6.376c6.824,0.816,12.256,3.144,16.288,6.984c4.032,3.84,6.608,8.984,7.728,15.424l-16.288,2.128
		c-0.984-5.064-3.568-8.504-7.728-10.304v25.176c10.304,2.792,17.32,6.408,21.056,10.848s5.608,10.144,5.608,17.096
		c0,7.768-2.352,14.32-7.056,19.64s-11.232,8.584-19.608,9.784v12.04h-9.336v-11.72c-7.432-0.896-13.456-3.672-18.096-8.304
		s-7.6-11.176-8.888-19.64l16.808-1.8c0.688,3.432,1.968,6.4,3.864,8.888C360.16,352.278,362.264,354.078,364.584,355.19z
		 M364.584,287.582c-2.536,0.856-4.552,2.32-6.056,4.384s-2.256,4.336-2.256,6.824c0,2.272,0.688,4.392,2.064,6.344
		s3.456,3.528,6.248,4.736L364.584,287.582L364.584,287.582z M373.92,356.094c3.216-0.6,5.832-2.096,7.856-4.48
		c2.016-2.376,3.024-5.184,3.024-8.408c0-2.872-0.848-5.352-2.544-7.44c-1.696-2.08-4.472-3.68-8.336-4.8L373.92,356.094
		L373.92,356.094z"/>
	<path style="fill:#FFFFFF;" d="M138.4,355.19v-26.976c-8.416-2.408-14.584-6.04-18.512-10.912
		C115.96,312.43,114,306.518,114,299.558c0-7.04,2.216-12.952,6.664-17.744c4.44-4.784,10.352-7.544,17.744-8.272v-6.376h9.336
		v6.376c6.824,0.816,12.256,3.144,16.288,6.984s6.608,8.984,7.728,15.424l-16.288,2.128c-0.984-5.064-3.568-8.504-7.728-10.304
		v25.176c10.304,2.792,17.32,6.408,21.056,10.848s5.608,10.144,5.608,17.096c0,7.768-2.352,14.32-7.056,19.64
		s-11.232,8.584-19.608,9.784v12.04H138.4v-11.72c-7.432-0.896-13.456-3.672-18.096-8.304s-7.6-11.176-8.888-19.64l16.808-1.8
		c0.688,3.432,1.968,6.4,3.864,8.888C133.976,352.278,136.08,354.078,138.4,355.19z M138.4,287.582
		c-2.536,0.856-4.552,2.32-6.056,4.384s-2.256,4.336-2.256,6.824c0,2.272,0.688,4.392,2.064,6.344
		c1.376,1.952,3.456,3.528,6.248,4.736V287.582z M147.736,356.094c3.216-0.6,5.832-2.096,7.856-4.48
		c2.016-2.376,3.024-5.184,3.024-8.408c0-2.872-0.848-5.352-2.544-7.44c-1.696-2.08-4.472-3.68-8.336-4.8V356.094z"/>
</g>
<g>
</g>
<g>
</g>
<g>
</g>
<g>
</g>
<g>
</g>
<g>
</g>
<g>
</g>
<g>
</g>
<g>
</g>
<g>
</g>
<g>
</g>
<g>
</g>
<g>
</g>
<g>
</g>
<g>
</g>
</svg>
